<svg width="24" height="24" viewBox="0 0 24 24" fill="none" xmlns="http://www.w3.org/2000/svg">
<path d="M4.66943 6C4.66943 4.20507 6.12451 2.75 7.91943 2.75H15.9194C17.7144 2.75 19.1694 4.20507 19.1694 6V8.25C19.1694 8.66421 19.5052 9 19.9194 9C20.3336 9 20.6694 8.66421 20.6694 8.25V6C20.6694 3.37665 18.5428 1.25 15.9194 1.25H7.91943C5.29608 1.25 3.16943 3.37665 3.16943 6V8.25C3.16943 8.66421 3.50522 9 3.91943 9C4.33365 9 4.66943 8.66421 4.66943 8.25V6Z" fill="currentColor"/>
<path d="M5.05049 19.5283C4.88917 19.2262 4.59407 19 4.25152 19C3.74887 19 3.3725 19.4678 3.57664 19.9272C4.31575 21.5902 5.98216 22.75 7.91943 22.75H15.9194C17.8567 22.75 19.5231 21.5902 20.2622 19.9272C20.4664 19.4678 20.09 19 19.5873 19C19.2448 19 18.9497 19.2262 18.7884 19.5283C18.2415 20.5528 17.1619 21.25 15.9194 21.25H7.91943C6.67699 21.25 5.59739 20.5528 5.05049 19.5283Z" fill="currentColor"/>
<path d="M1.91943 16.736C1.36715 16.736 0.919434 16.2883 0.919434 15.736V12.072C0.919434 11.5197 1.36715 11.072 1.91943 11.072H3.07143C3.5141 11.072 3.91143 11.1333 4.26343 11.256C4.62077 11.3733 4.9221 11.552 5.16743 11.792C5.4181 12.032 5.6101 12.328 5.74343 12.68C5.87677 13.032 5.94343 13.44 5.94343 13.904C5.94343 14.8373 5.6981 15.544 5.20743 16.024C4.7221 16.4987 4.02077 16.736 3.10343 16.736H1.91943ZM3.11943 15.56C3.39143 15.56 3.62077 15.5227 3.80743 15.448C3.99943 15.368 4.1541 15.256 4.27143 15.112C4.3941 14.968 4.4821 14.7947 4.53543 14.592C4.58877 14.3893 4.61543 14.1627 4.61543 13.912C4.61543 13.368 4.48743 12.9573 4.23143 12.68C3.98077 12.4027 3.58877 12.264 3.05543 12.264H2.22343V15.56H3.11943Z" fill="currentColor"/>
<path d="M9.48687 11C9.91887 11 10.3082 11.0693 10.6549 11.208C11.0069 11.3413 11.3055 11.536 11.5509 11.792C11.8015 12.0427 11.9935 12.344 12.1269 12.696C12.2602 13.048 12.3269 13.44 12.3269 13.872C12.3269 14.2987 12.2602 14.6907 12.1269 15.048C11.9935 15.4053 11.8015 15.7147 11.5509 15.976C11.3055 16.2373 11.0069 16.44 10.6549 16.584C10.3029 16.728 9.9082 16.7973 9.47087 16.792C9.0282 16.792 8.63087 16.7227 8.27887 16.584C7.9322 16.44 7.6362 16.24 7.39087 15.984C7.14554 15.728 6.9562 15.424 6.82287 15.072C6.69487 14.7147 6.63087 14.3227 6.63087 13.896C6.63087 13.464 6.69754 13.072 6.83087 12.72C6.96954 12.3627 7.16154 12.056 7.40687 11.8C7.65754 11.544 7.95887 11.3467 8.31087 11.208C8.66287 11.0693 9.05487 11 9.48687 11ZM7.96687 13.888C7.96687 14.1067 7.9962 14.3173 8.05487 14.52C8.11887 14.7227 8.2122 14.904 8.33487 15.064C8.46287 15.2187 8.62287 15.344 8.81487 15.44C9.00687 15.536 9.2362 15.5867 9.50287 15.592C9.75887 15.592 9.9802 15.544 10.1669 15.448C10.3535 15.352 10.5082 15.224 10.6309 15.064C10.7535 14.904 10.8442 14.7227 10.9029 14.52C10.9615 14.3173 10.9909 14.112 10.9909 13.904C10.9909 13.696 10.9615 13.4907 10.9029 13.288C10.8495 13.0853 10.7615 12.904 10.6389 12.744C10.5162 12.584 10.3589 12.4533 10.1669 12.352C9.9802 12.2507 9.75354 12.2 9.48687 12.2C9.22554 12.2 8.99887 12.248 8.80687 12.344C8.61487 12.44 8.45754 12.568 8.33487 12.728C8.2122 12.8827 8.11887 13.0613 8.05487 13.264C7.9962 13.4667 7.96687 13.6747 7.96687 13.888Z" fill="currentColor"/>
<path d="M14.3108 13.888C14.3108 14.1013 14.3375 14.3093 14.3908 14.512C14.4441 14.7147 14.5268 14.896 14.6388 15.056C14.7561 15.216 14.9055 15.3467 15.0868 15.448C15.2735 15.544 15.4948 15.592 15.7508 15.592C16.0815 15.592 16.3481 15.52 16.5508 15.376C16.6118 15.3337 16.6664 15.2862 16.7146 15.2334C16.9253 15.0024 17.1735 14.76 17.4861 14.76C17.8745 14.76 18.1946 15.101 18.0435 15.4588C18.0159 15.5241 17.985 15.5872 17.9508 15.648C17.8068 15.8987 17.6228 16.1093 17.3988 16.28C17.1748 16.4507 16.9188 16.5787 16.6308 16.664C16.3428 16.7493 16.0441 16.792 15.7348 16.792C15.2921 16.792 14.9001 16.7227 14.5588 16.584C14.2175 16.4453 13.9268 16.2507 13.6868 16C13.4521 15.744 13.2735 15.44 13.1508 15.088C13.0281 14.7307 12.9668 14.3333 12.9668 13.896C12.9668 13.4693 13.0308 13.08 13.1588 12.728C13.2868 12.3707 13.4681 12.064 13.7028 11.808C13.9428 11.552 14.2335 11.3547 14.5748 11.216C14.9215 11.072 15.3108 11 15.7428 11C16.0628 11 16.3615 11.0427 16.6388 11.128C16.9215 11.208 17.1695 11.3333 17.3828 11.504C17.6015 11.6693 17.7801 11.88 17.9188 12.136C17.9551 12.2031 17.9878 12.2734 18.0168 12.3471C18.1587 12.7073 17.841 13.048 17.4539 13.048C17.1494 13.048 16.9055 12.819 16.7112 12.5847C16.6618 12.5251 16.6057 12.4716 16.5428 12.424C16.3455 12.2747 16.0815 12.2 15.7508 12.2C15.4895 12.2 15.2681 12.248 15.0868 12.344C14.9055 12.4347 14.7561 12.56 14.6388 12.72C14.5268 12.8747 14.4441 13.0533 14.3908 13.256C14.3375 13.4587 14.3108 13.6693 14.3108 13.888Z" fill="currentColor"/>
<path d="M21.9015 11.3665C22.0153 11.1834 22.2156 11.072 22.4312 11.072C22.9308 11.072 23.2276 11.6303 22.948 12.0444L21.6925 13.904L22.9674 15.746C23.257 16.1645 22.9575 16.736 22.4486 16.736C22.2363 16.736 22.0382 16.6293 21.9215 16.4519L20.8765 14.864L19.7757 16.4739C19.6636 16.6379 19.4777 16.736 19.279 16.736C18.7924 16.736 18.507 16.1885 18.7856 15.7896L20.1085 13.896L18.8603 12.0601C18.5748 11.6402 18.8756 11.072 19.3834 11.072C19.6007 11.072 19.8028 11.1836 19.9186 11.3674L20.9165 12.952L21.9015 11.3665Z" fill="currentColor"/>
</svg>
